# xmcd
#
# Track frame offsets:
#	150
#	14729
#	26931
#	42202
#	55114
#	67756
#	82511
#	98965
#	110553
#	124161
#
# Disc length: 1811 seconds
#
# Revision: 2385960647
# Processed by: cddbd v1.5.2PL0 Copyright (c) Steve Scherf et al.
# Submitted via: EZCDAudioConverter 8.0.3.1
#
DISCID=7b07110a
DTITLE=Pistol Annies - Hell On Heels
DYEAR=2011
DGENRE=Country
TTITLE0=Hell On Heels
TTITLE1=Lemon Drop
TTITLE2=Beige
TTITLE3=Bad Example
TTITLE4=Housewife's Prayer
TTITLE5=Takin' Pills
TTITLE6=Boys From The South
TTITLE7=The Hunter's Wife
TTITLE8=Trailer For Rent
TTITLE9=Family Feud
EXTD=
EXTT0=
EXTT1=
EXTT2=
EXTT3=
EXTT4=
EXTT5=
EXTT6=
EXTT7=
EXTT8=
EXTT9=
PLAYORDER=
